# xmcd
#
# Track frame offsets: 
#        150
#        10686
#        20925
#        32634
#        39885
#        50290
#        57696
#        69729
#        80609
#        91589
#        101782
#        112023
#        123795
#        133658
#        147565
#
# Disc length: 2089 seconds
#
# Revision: 0
# Processed by: cddbd v1.5.2PL0 Copyright (c) Steve Scherf et al.
# Submitted via: ExactAudioCopyFreeDBPlugin 1.0
#
DISCID=cf08270f
DTITLE=Bg Cwrkot - A Better Way
DYEAR=2017
DGENRE=Bluegrass
TTITLE0=A Better Way
TTITLE1=Drunken Man압 Praise To Sobriety
TTITLE2=Fiddler압 Plan
TTITLE3=What압 The Matter With The Mill
TTITLE4=We Shall Rise
TTITLE5=Chicken Reel
TTITLE6=Time Of Parting
TTITLE7=Ninety-Nine Years ( And One Dark Day )
TTITLE8=Mississippi Waltz
TTITLE9=Lover압 Lane
TTITLE10=I앐 Going Back To Old Kentucky
TTITLE11=If You았e Got The Money ( I았e Got The Time )
TTITLE12=Get Well
TTITLE13=Where The Smoke Goes Up
TTITLE14=Will You Be Loving Another Man
EXTD=
EXTT0=
EXTT1=
EXTT2=
EXTT3=
EXTT4=
EXTT5=
EXTT6=
EXTT7=
EXTT8=
EXTT9=
EXTT10=
EXTT11=
EXTT12=
EXTT13=
EXTT14=
PLAYORDER=
